<svg width="25" height="25" viewBox="0 0 25 25" fill="none" xmlns="http://www.w3.org/2000/svg">
<path fill-rule="evenodd" clip-rule="evenodd" d="M7 4C4.25 4 4.25 4.208 4.25 6.75V6.775C4.25 7.882 4.25 8.682 4.521 9.02C4.786 9.348 5.573 9.5 7 9.5C8.427 9.5 9.214 9.347 9.479 9.019C9.75 8.682 9.75 7.882 9.75 6.774C9.75 4.208 9.75 4 7 4ZM7 11C5.314 11 4.049 10.823 3.354 9.96C2.75 9.211 2.75 8.189 2.75 6.775L3.5 6.75H2.75C2.75 3.88 2.931 2.5 7 2.5C11.069 2.5 11.25 3.88 11.25 6.75C11.25 8.188 11.25 9.211 10.646 9.96C9.951 10.823 8.686 11 7 11Z" fill="#7B7D82"/>
<path fill-rule="evenodd" clip-rule="evenodd" d="M18 4C15.25 4 15.25 4.208 15.25 6.75V6.775C15.25 7.882 15.25 8.682 15.521 9.02C15.786 9.348 16.573 9.5 18 9.5C19.427 9.5 20.214 9.347 20.479 9.019C20.75 8.682 20.75 7.882 20.75 6.774C20.75 4.208 20.75 4 18 4ZM18 11C16.314 11 15.049 10.823 14.354 9.96C13.75 9.211 13.75 8.189 13.75 6.775L14.5 6.75H13.75C13.75 3.88 13.931 2.5 18 2.5C22.069 2.5 22.25 3.88 22.25 6.75C22.25 8.188 22.25 9.211 21.646 9.96C20.951 10.823 19.686 11 18 11Z" fill="#7B7D82"/>
<path fill-rule="evenodd" clip-rule="evenodd" d="M7 15C4.25 15 4.25 15.208 4.25 17.75V17.775C4.25 18.882 4.25 19.682 4.521 20.02C4.786 20.348 5.573 20.5 7 20.5C8.427 20.5 9.214 20.347 9.479 20.019C9.75 19.682 9.75 18.882 9.75 17.774C9.75 15.208 9.75 15 7 15ZM7 22C5.314 22 4.049 21.823 3.354 20.96C2.75 20.211 2.75 19.189 2.75 17.775L3.5 17.75H2.75C2.75 14.88 2.931 13.5 7 13.5C11.069 13.5 11.25 14.88 11.25 17.75C11.25 19.188 11.25 20.211 10.646 20.96C9.951 21.823 8.686 22 7 22Z" fill="#7B7D82"/>
<path fill-rule="evenodd" clip-rule="evenodd" d="M18 15C15.25 15 15.25 15.208 15.25 17.75V17.775C15.25 18.882 15.25 19.682 15.521 20.02C15.786 20.348 16.573 20.5 18 20.5C19.427 20.5 20.214 20.347 20.479 20.019C20.75 19.682 20.75 18.882 20.75 17.774C20.75 15.208 20.75 15 18 15ZM18 22C16.314 22 15.049 21.823 14.354 20.96C13.75 20.211 13.75 19.189 13.75 17.775L14.5 17.75H13.75C13.75 14.88 13.931 13.5 18 13.5C22.069 13.5 22.25 14.88 22.25 17.75C22.25 19.188 22.25 20.211 21.646 20.96C20.951 21.823 19.686 22 18 22Z" fill="#7B7D82"/>
</svg>
