<svg width="25" height="25" viewBox="0 0 25 25" fill="none" xmlns="http://www.w3.org/2000/svg">
<path fill-rule="evenodd" clip-rule="evenodd" d="M11.4614 11.7119L10.4144 15.0589L13.7604 14.0109L14.8084 10.6639L11.4614 11.7119ZM9.27039 16.9519C9.07439 16.9519 8.88239 16.8749 8.73939 16.7329C8.54239 16.5349 8.47039 16.2439 8.55439 15.9789L10.1474 10.8899C10.2204 10.6539 10.4044 10.4709 10.6384 10.3979L15.7274 8.8049C15.9944 8.7199 16.2844 8.7929 16.4824 8.9899C16.6794 9.1879 16.7514 9.4789 16.6674 9.7439L15.0754 14.8329C15.0024 15.0679 14.8174 15.2519 14.5834 15.3249L9.49439 16.9179C9.42039 16.9409 9.34439 16.9519 9.27039 16.9519Z" fill="#7B7D82"/>
<mask id="mask0_3129_33491" style="mask-type:alpha" maskUnits="userSpaceOnUse" x="2" y="2" width="21" height="22">
<path fill-rule="evenodd" clip-rule="evenodd" d="M2.25 2.5H22.9718V23.2217H2.25V2.5Z" fill="white"/>
</mask>
<g mask="url(#mask0_3129_33491)">
<path fill-rule="evenodd" clip-rule="evenodd" d="M12.6108 4C7.72482 4 3.74982 7.976 3.74982 12.861C3.74982 17.747 7.72482 21.722 12.6108 21.722C17.4968 21.722 21.4718 17.747 21.4718 12.861C21.4718 7.976 17.4968 4 12.6108 4ZM12.6108 23.222C6.89782 23.222 2.24982 18.574 2.24982 12.861C2.24982 7.148 6.89782 2.5 12.6108 2.5C18.3238 2.5 22.9718 7.148 22.9718 12.861C22.9718 18.574 18.3238 23.222 12.6108 23.222Z" fill="#7B7D82"/>
</g>
</svg>
