<svg width="33" height="32" viewBox="0 0 33 32" fill="none" xmlns="http://www.w3.org/2000/svg">
<path d="M19.2096 12.6554C19.5715 13.0725 20.2031 13.1173 20.6202 12.7553C21.0374 12.3933 21.0821 11.7618 20.7202 11.3446L19.2096 12.6554ZM13.7905 19.3446C13.4285 18.9275 12.7969 18.8827 12.3798 19.2447C11.9626 19.6067 11.9179 20.2382 12.2799 20.6554L13.7905 19.3446ZM17.5 9.33333C17.5 8.78105 17.0523 8.33333 16.5 8.33333C15.9477 8.33333 15.5 8.78105 15.5 9.33333H17.5ZM15.5 22.6666C15.5 23.2189 15.9477 23.6667 16.5 23.6667C17.0523 23.6667 17.5 23.219 17.5 22.6667L15.5 22.6666ZM27.5 16C27.5 22.0751 22.5751 27 16.5 27V29C23.6797 29 29.5 23.1797 29.5 16H27.5ZM16.5 27C10.4249 27 5.5 22.0751 5.5 16H3.5C3.5 23.1797 9.3203 29 16.5 29V27ZM5.5 16C5.5 9.92487 10.4249 5 16.5 5V3C9.3203 3 3.5 8.8203 3.5 16H5.5ZM16.5 5C22.5751 5 27.5 9.92487 27.5 16H29.5C29.5 8.8203 23.6797 3 16.5 3V5ZM16.5 15C15.5653 15 14.7644 14.7456 14.2263 14.3869C13.6812 14.0235 13.5 13.6313 13.5 13.3333H11.5C11.5 14.5081 12.2142 15.4492 13.1169 16.051C14.0265 16.6574 15.2255 17 16.5 17V15ZM13.5 13.3333C13.5 13.0353 13.6812 12.6431 14.2263 12.2798C14.7644 11.921 15.5653 11.6667 16.5 11.6667V9.66667C15.2255 9.66667 14.0265 10.0092 13.1169 10.6157C12.2142 11.2174 11.5 12.1586 11.5 13.3333H13.5ZM16.5 11.6667C17.7739 11.6667 18.7563 12.133 19.2096 12.6554L20.7202 11.3446C19.7902 10.2728 18.1872 9.66667 16.5 9.66667V11.6667ZM16.5 17C17.4347 17 18.2357 17.2544 18.7737 17.6131C19.3188 17.9765 19.5 18.3687 19.5 18.6667H21.5C21.5 17.4919 20.7858 16.5508 19.8831 15.949C18.9735 15.3426 17.7745 15 16.5 15V17ZM15.5 9.33333V10.6667H17.5V9.33333H15.5ZM15.5 21.3333L15.5 22.6666L17.5 22.6667L17.5 21.3334L15.5 21.3333ZM16.5 20.3333C15.2261 20.3333 14.2437 19.8669 13.7905 19.3446L12.2799 20.6554C13.2099 21.7272 14.8128 22.3333 16.5 22.3333L16.5 20.3333ZM19.5 18.6667C19.5 18.9647 19.3188 19.3569 18.7738 19.7202C18.2357 20.079 17.4347 20.3333 16.5 20.3333V22.3333C17.7745 22.3333 18.9735 21.9908 19.8832 21.3843C20.7858 20.7826 21.5 19.8414 21.5 18.6667H19.5ZM15.5 10.6667L15.5 21.3333L17.5 21.3333L17.5 10.6667L15.5 10.6667Z" fill="#81451C"/>
</svg>
