<svg width="32" height="32" viewBox="0 0 32 32" fill="none" xmlns="http://www.w3.org/2000/svg">
<path d="M25.3225 12H5.99182C4.98602 12 4.17065 12.8154 4.17065 13.8212C4.17065 14.827 4.98602 15.6423 5.99182 15.6423H25.3225C26.3283 15.6423 27.1437 14.827 27.1437 13.8212C27.1437 12.8154 26.3283 12 25.3225 12Z" stroke="white" stroke-width="1.5" stroke-linecap="round" stroke-linejoin="round"/>
<path d="M25.3225 15.6426H5.99182C4.98602 15.6426 4.17065 16.4579 4.17065 17.4637C4.17065 18.4695 4.98602 19.2849 5.99182 19.2849H25.3225C26.3283 19.2849 27.1437 18.4695 27.1437 17.4637C27.1437 16.4579 26.3283 15.6426 25.3225 15.6426Z" stroke="white" stroke-width="1.5" stroke-linecap="round" stroke-linejoin="round"/>
<path d="M25.3225 19.2832H5.99182C4.98602 19.2832 4.17065 20.0986 4.17065 21.1044C4.17065 22.1102 4.98602 22.9255 5.99182 22.9255H25.3225C26.3283 22.9255 27.1437 22.1102 27.1437 21.1044C27.1437 20.0986 26.3283 19.2832 25.3225 19.2832Z" stroke="white" stroke-width="1.5" stroke-linecap="round" stroke-linejoin="round"/>
<path d="M1 22.9258H30.3142C30.3142 25.5039 28.2187 27.5994 25.6406 27.5994H5.67359C3.09544 27.5994 1 25.5039 1 22.9258Z" stroke="white" stroke-width="1.5" stroke-linecap="round" stroke-linejoin="round"/>
<path d="M15.6571 11.9997C16.8689 11.9997 17.8512 11.0173 17.8512 9.8055C17.8512 8.59369 16.8689 7.61133 15.6571 7.61133C14.4453 7.61133 13.4629 8.59369 13.4629 9.8055C13.4629 11.0173 14.4453 11.9997 15.6571 11.9997Z" stroke="white" stroke-width="1.5" stroke-linecap="round" stroke-linejoin="round"/>
<path d="M15.657 7.61107V7.19417C15.657 5.98738 16.6444 5 17.8512 5" stroke="white" stroke-width="1.5" stroke-linecap="round" stroke-linejoin="round"/>
</svg>
