<svg width="47" height="47" viewBox="0 0 47 47" fill="none" xmlns="http://www.w3.org/2000/svg">
<path d="M24.4803 22.4856H45.3909C45.8278 22.4856 46.1841 22.1293 46.1784 21.6924C46.1669 20.2899 46.1381 19.0082 46.0864 18.192C46.0692 17.9448 46.0462 17.462 46.0289 17.1171C46.0117 16.7723 45.983 16.3239 45.9715 16.117C45.9542 15.9101 45.914 15.3928 45.8852 14.9732C45.8507 14.5479 45.822 14.1513 45.8105 14.088C45.799 14.0248 45.776 13.7432 45.753 13.4615C45.73 13.1856 45.7013 12.9212 45.6956 12.881C45.6898 12.8408 45.6553 12.5706 45.6208 12.2832C45.5461 11.5877 45.4541 10.8233 45.4312 10.7313C45.4197 10.6911 45.3909 10.4612 45.3564 10.2198C45.2127 9.13341 44.9483 7.62173 44.7242 6.59287C44.6897 6.44918 44.638 6.21351 44.6092 6.06982C44.5287 5.69621 44.431 5.3226 44.4023 5.25938C44.3851 5.22489 44.3621 5.15017 44.3391 5.08694C44.2758 4.87427 43.954 4.15579 43.8735 4.04084C43.862 4.02359 43.77 3.88564 43.6723 3.7362C43.4654 3.42582 42.9366 2.87403 42.6205 2.64411C41.994 2.18429 41.2985 1.86816 40.3961 1.64974C40.2409 1.6095 40.0857 1.57502 39.9305 1.53478C39.8213 1.5003 39.6086 1.45431 39.1488 1.36235C39.0166 1.33361 38.8901 1.30487 38.7579 1.27613C38.2004 1.13818 36.3726 0.845042 35.1885 0.695599C34.9529 0.66686 34.7172 0.632373 34.6655 0.620877C34.5793 0.603634 34.1597 0.557651 33.3032 0.477181C33.0676 0.45419 32.7342 0.419703 32.579 0.40246C32.4181 0.385216 32.1307 0.356477 31.941 0.339233C31.7513 0.327738 31.4352 0.298999 31.2455 0.281755C30.596 0.224277 28.7912 0.120816 27.7911 0.0805812C26.9289 0.0403463 25.7391 0.017355 24.4918 0.00585938C24.4918 0.00585938 24.4918 0.00585938 24.4861 0.00585938V0.753077C25.7793 0.764573 26.9404 0.793312 27.7566 0.827799C28.7165 0.868034 30.5213 0.971495 31.188 1.02897C31.28 1.03472 31.4007 1.04622 31.5272 1.05771C31.6594 1.06921 31.7858 1.0807 31.872 1.08645H31.941C32.1249 1.10944 32.3606 1.13243 32.51 1.14968C32.5963 1.15543 32.74 1.17267 32.8836 1.18416L33.2285 1.21865C33.6711 1.26463 34.4126 1.33361 34.516 1.35085C34.6252 1.37384 34.8896 1.40833 35.0908 1.43132C36.2634 1.58076 38.0567 1.8739 38.5797 2.00036H38.5855H38.5912C38.7234 2.0291 38.8556 2.05783 38.9936 2.08657C39.3097 2.1498 39.6259 2.21877 39.7178 2.24751H39.7293L39.7408 2.25326C39.896 2.2935 40.0569 2.33373 40.2121 2.37396C41.0168 2.56939 41.6203 2.83954 42.1721 3.24763C42.4135 3.42582 42.8849 3.91438 43.0401 4.15004C43.1378 4.29374 43.224 4.42594 43.247 4.46043C43.3275 4.59837 43.5804 5.17316 43.6263 5.31685C43.6666 5.43756 43.6896 5.50078 43.7068 5.54677C43.7298 5.62149 43.8045 5.89164 43.8792 6.24225C43.9137 6.38595 43.9597 6.61586 43.9942 6.75956C44.2126 7.76543 44.477 9.26561 44.615 10.329C44.6724 10.7658 44.6897 10.8463 44.6954 10.8922C44.7127 11.0015 44.7932 11.6625 44.8736 12.3752C44.9254 12.835 44.9426 12.9672 44.9541 13.0189C44.9598 13.0649 44.9771 13.2546 45.0058 13.5305C45.0058 13.588 45.0518 14.0708 45.069 14.1858C45.0748 14.2375 45.1035 14.5536 45.138 15.0307L45.1725 15.4733C45.1955 15.7664 45.2127 16.0423 45.2242 16.1745C45.2357 16.3642 45.2645 16.7953 45.2817 17.1631C45.299 17.508 45.3277 17.9966 45.3392 18.2437C45.3852 18.9967 45.4139 20.2267 45.4312 21.7039C45.4312 21.7039 45.4312 21.7212 45.4197 21.7327C45.4082 21.7441 45.3967 21.7441 45.3909 21.7441H24.4803C24.4803 21.7441 24.4401 21.7269 24.4401 21.7039V0.793312C24.4401 0.793312 24.4573 0.753077 24.4803 0.753077V0.00585938C24.0435 0.00585938 23.6929 0.356477 23.6929 0.793312V21.6982C23.6929 22.135 24.0435 22.4856 24.4803 22.4856Z" fill="#F12838"/>
<path d="M21.7096 0V0.747218C21.7096 0.747218 21.7498 0.764461 21.7498 0.787453V21.6981C21.7498 21.6981 21.7325 21.7383 21.7096 21.7383H0.798948C0.798948 21.7383 0.781705 21.7383 0.770209 21.7268C0.758713 21.7153 0.758713 21.7038 0.758713 21.6981C0.770209 20.5542 0.798948 19.4909 0.827687 18.8471C0.902409 17.1803 1.05185 14.8926 1.10933 14.4041C1.13232 14.2374 1.16681 13.8695 1.1898 13.5994C1.23004 13.1395 1.24153 13.0418 1.24728 13.0246V13.0016V12.9786C1.24728 12.9499 1.26452 12.8407 1.27602 12.7027L1.31625 12.3578C1.37948 11.7773 1.44845 11.214 1.55766 10.4208C1.68411 9.51841 1.83931 8.52403 1.87379 8.39183C1.89104 8.33435 1.90828 8.24813 1.94277 7.99523C1.96001 7.90326 1.98875 7.71933 2.01174 7.63312C2.03473 7.52391 2.08071 7.32848 2.10371 7.19053C2.25315 6.44332 2.43708 5.67885 2.48306 5.52366C2.50031 5.47768 2.5233 5.41445 2.57503 5.27651L2.60377 5.20179C2.83943 4.51205 3.33374 3.79357 3.85105 3.36823C4.40858 2.91415 5.1558 2.55204 5.89727 2.37385C5.93176 2.36811 5.98349 2.35661 6.04097 2.33937L6.19616 2.30488C6.35135 2.27039 6.58701 2.21291 6.70772 2.18418C7.1503 2.08071 7.94925 1.91403 8.41482 1.83931C8.51828 1.82206 8.66773 1.79332 8.78843 1.77033L8.90339 1.74734C9.07008 1.7186 9.22527 1.68986 9.29999 1.67837H9.30574H9.31148C9.42644 1.66112 9.63336 1.62664 9.77131 1.60364C10.4093 1.49444 11.921 1.30476 12.9384 1.20704C13.1913 1.18405 13.5246 1.14957 13.6798 1.13232C14.3523 1.06335 15.2432 0.994375 16.0192 0.948392C17.8528 0.833435 18.8069 0.7932 20.0829 0.758714C20.5485 0.747218 21.0945 0.74147 21.6923 0.735722V0C21.106 0 20.56 0.0114957 20.0714 0.0229913C18.7437 0.0574783 17.7665 0.103461 15.979 0.21267C15.1513 0.2644 14.2489 0.333374 13.6109 0.3966C13.4499 0.413844 13.1165 0.448331 12.8694 0.471322C11.8348 0.574783 10.2944 0.764461 9.65061 0.879418C9.51266 0.902409 9.31148 0.936896 9.20227 0.95414C9.09307 0.971383 8.89189 1.00587 8.76544 1.02886C8.63899 1.05185 8.42057 1.09209 8.28837 1.11508C7.8113 1.19555 6.99511 1.36224 6.52953 1.47144C6.40308 1.50593 6.17317 1.55766 6.02373 1.59215C5.87428 1.62664 5.73633 1.66112 5.71909 1.66112C4.86841 1.8623 4.02348 2.27614 3.37398 2.80494C2.74171 3.3165 2.17268 4.14993 1.89104 4.97187C1.84505 5.09832 1.79907 5.23052 1.78183 5.25926C1.7301 5.36847 1.51743 6.29962 1.36224 7.05833C1.33924 7.18479 1.29901 7.37446 1.27602 7.47793C1.25303 7.58139 1.21854 7.76532 1.2013 7.88602C1.18405 8.00673 1.16106 8.15042 1.14382 8.2079C1.09784 8.37459 0.9254 9.50691 0.810444 10.3288C0.701235 11.1221 0.626513 11.7026 0.563287 12.2889C0.5288 12.5763 0.500061 12.8579 0.494313 12.9154C0.482818 12.9729 0.459826 13.2545 0.431087 13.5419C0.408096 13.8293 0.373609 14.1799 0.356365 14.3236C0.293139 14.8581 0.143696 17.1803 0.068974 18.8241C0.034487 19.5024 0.0114957 20.606 0 21.6981C0 22.1349 0.350618 22.497 0.787453 22.497H21.6923C22.1291 22.497 22.4798 22.1464 22.4798 21.7096V0.7932C22.4798 0.356365 22.1291 0.00574782 21.6923 0.00574782L21.7096 0Z" fill="#F12838"/>
<path d="M21.7042 23.6865H0.799309C0.362474 23.6865 0.00610886 24.0429 0.0176045 24.4797C0.0405958 25.6063 0.0808306 27.5663 0.10957 27.9572C0.126813 28.1813 0.155552 28.6526 0.172796 29.0033C0.190039 29.3539 0.213031 29.8022 0.230274 30.0034C0.299248 31.0093 0.350979 31.6645 0.37397 31.8772C0.391213 32.0036 0.4257 32.3428 0.448692 32.6301C0.471683 32.9118 0.50617 33.2567 0.523413 33.3831C0.540657 33.5153 0.575144 33.797 0.598135 34.0096C0.672857 34.6994 0.724588 35.1477 0.77057 35.4466C0.793561 35.6075 0.833796 35.8777 0.856788 36.0559C0.943005 36.6939 1.04072 37.3146 1.14418 37.8837C1.16717 38.0101 1.20741 38.2285 1.2304 38.3607C1.28213 38.6481 1.39134 39.2287 1.47181 39.5965C1.7477 40.8783 1.87415 41.2576 2.20178 41.8899C2.29374 42.0623 2.4087 42.2693 2.46043 42.3382C2.51216 42.4129 2.58114 42.5164 2.62137 42.5681C2.78806 42.8153 3.25938 43.2981 3.52378 43.482C3.56976 43.5165 3.65023 43.574 3.70771 43.62C3.76519 43.666 3.82267 43.7005 3.83416 43.7005C3.84566 43.7005 3.8744 43.7235 3.89739 43.7464C4.01235 43.8557 4.81129 44.235 5.15042 44.3385C5.21364 44.3615 5.29411 44.3845 5.32285 44.4017C5.39757 44.4362 5.82291 44.5454 6.34022 44.6604C6.56438 44.7121 6.7943 44.7696 6.84603 44.7811C6.97823 44.8155 7.82316 44.9822 8.45542 45.1029C8.82328 45.1719 9.53026 45.2811 9.97859 45.3443C10.1453 45.3673 10.3637 45.4018 10.4557 45.4191C10.8063 45.4823 12.2605 45.649 13.1686 45.7352C13.4963 45.7697 13.8986 45.8042 14.0653 45.8214C14.3354 45.8501 14.6171 45.8731 15.9506 45.9709C16.1518 45.9881 16.6058 46.0111 16.968 46.0283C17.3301 46.0456 17.8301 46.0743 18.083 46.0858C18.8705 46.1318 20.2097 46.1605 21.6812 46.172H21.6869C22.1295 46.172 22.4859 45.8157 22.4859 45.3731V24.474C22.4859 24.0371 22.1353 23.6865 21.6984 23.6865H21.7042ZM21.7444 45.3731C21.7444 45.3731 21.7214 45.4248 21.6927 45.4248C20.1235 45.4133 18.859 45.3846 18.129 45.3443C17.8704 45.3271 17.3646 45.3041 17.0024 45.2869C16.6461 45.2696 16.1977 45.2409 16.0023 45.2294C14.6401 45.1317 14.3929 45.1087 14.14 45.0857C14.0423 45.0742 13.8699 45.0569 13.6744 45.0397L13.2376 44.9995C12.3467 44.9133 10.904 44.7466 10.5879 44.6891C10.4729 44.6661 10.243 44.6374 10.0821 44.6144C9.62798 44.5511 8.92674 44.4362 8.58762 44.373C7.92087 44.2523 7.13342 44.0913 7.0357 44.0683C6.97823 44.0511 6.73682 43.9936 6.50116 43.9419C5.98385 43.8269 5.68496 43.7464 5.60449 43.7177C5.55851 43.7005 5.49529 43.6775 5.37458 43.6372H5.36883H5.36309C5.12168 43.5683 4.54115 43.2924 4.38021 43.1889C4.32273 43.1372 4.24801 43.0854 4.16179 43.0395C4.11006 42.9992 4.03534 42.9417 3.98361 42.9073L3.95487 42.8843C3.75369 42.7406 3.3456 42.321 3.23639 42.16L3.17316 42.0681C3.13868 42.0221 3.10419 41.9704 3.0812 41.9301L3.07545 41.9129C3.05246 41.8784 2.96049 41.7232 2.87428 41.5508C2.59838 41.0162 2.48917 40.7116 2.21328 39.4413C2.13281 39.0792 2.0236 38.5102 1.97761 38.2458V38.2285C1.96037 38.1423 1.93738 38.0216 1.92014 37.9124L1.8914 37.7515C1.78794 37.1939 1.69022 36.5904 1.60975 35.9639C1.58676 35.8087 1.55802 35.5788 1.52928 35.4121L1.51779 35.3316C1.47181 35.0385 1.41433 34.5787 1.34535 33.9292C1.32236 33.705 1.28787 33.4176 1.27063 33.2969C1.25914 33.1819 1.22465 32.8428 1.20166 32.5669C1.17867 32.2795 1.14418 31.9347 1.12694 31.7852C1.10394 31.6243 1.05796 31.0552 0.98324 29.9517C0.971744 29.7965 0.954501 29.4344 0.931509 28.9688C0.914266 28.6124 0.885527 28.1353 0.868283 27.9054C0.845292 27.5721 0.805057 25.9109 0.776318 24.4682C0.776318 24.4625 0.776318 24.451 0.787814 24.4452C0.799309 24.4337 0.810805 24.4337 0.810805 24.4337H21.7157C21.7157 24.4337 21.7559 24.451 21.7559 24.474V45.3731H21.7444Z" fill="#F12838"/>
<path d="M12.8234 10.6107C12.8406 10.3866 12.8579 10.2026 12.8694 10.1049C12.8866 9.97847 12.9154 9.66809 12.9383 9.41518C12.9613 9.16228 12.9843 8.91512 12.9901 8.86914C12.9901 8.82315 13.0246 8.576 13.0533 8.32309C13.1108 7.81154 13.174 7.29998 13.2717 6.60449H11.0875C10.9898 7.29998 10.9266 7.81154 10.8691 8.32309C10.8404 8.576 10.8116 8.82315 10.8059 8.86914C10.8002 8.91512 10.7772 9.16228 10.7542 9.41518C10.7312 9.66809 10.7024 9.97272 10.6852 10.1049C10.6737 10.2256 10.6507 10.4555 10.6277 10.7544C10.3346 10.7774 10.1047 10.7947 9.97821 10.8119C9.85176 10.8291 9.54138 10.8579 9.28847 10.8809C9.03557 10.9039 8.78841 10.9269 8.74243 10.9326C8.69644 10.9326 8.44929 10.9671 8.19638 10.9958C7.68483 11.0533 7.17327 11.1165 6.47778 11.2143V13.3984C7.17327 13.3007 7.68483 13.2375 8.19638 13.18C8.44929 13.1513 8.69644 13.1225 8.74243 13.1168C8.78841 13.111 9.03557 13.088 9.28847 13.0651C9.54138 13.0421 9.84601 13.0133 9.97821 12.9961C10.0817 12.9846 10.2599 12.9673 10.484 12.9501C10.461 13.3352 10.4438 13.7088 10.4265 14.0537C10.3921 14.7951 10.3633 16.1172 10.3576 17.2725H12.5417C12.5475 16.1172 12.5762 14.7894 12.6107 14.0537C12.628 13.6686 12.651 13.2375 12.6739 12.8064C13.105 12.7834 13.5361 12.7604 13.9212 12.7432C14.6627 12.7087 15.9847 12.6799 17.14 12.6742V10.49C15.9847 10.4958 14.6569 10.5245 13.9212 10.559C13.5764 10.5762 13.197 10.5935 12.8176 10.6165L12.8234 10.6107Z" fill="#F12838"/>
<path d="M36.7691 12.9963C36.8956 13.0135 37.2059 13.0423 37.4588 13.0653C37.7118 13.0883 37.9589 13.1112 38.0049 13.117C38.0509 13.117 38.298 13.1515 38.5509 13.1802C39.0625 13.2377 39.574 13.3009 40.2695 13.3986V11.2145C39.574 11.1167 39.0625 11.0535 38.5509 10.996C38.298 10.9673 38.0509 10.9386 38.0049 10.9328C37.9589 10.9271 37.7118 10.9041 37.4588 10.8811C37.2059 10.8581 36.9013 10.8294 36.7691 10.8121C36.3035 10.7604 34.2631 10.6282 32.8203 10.5592C32.0789 10.5247 30.7569 10.496 29.6016 10.4902V12.6744C30.7569 12.6802 32.0846 12.7089 32.8203 12.7434C34.2573 12.8066 36.2978 12.9446 36.7691 12.9963Z" fill="#F12838"/>
<path d="M9.97821 33.6475C9.85176 33.6302 9.54138 33.6015 9.28847 33.5785C9.03557 33.5555 8.78841 33.5325 8.74243 33.5268C8.69644 33.5268 8.44929 33.4923 8.19638 33.4635C7.68483 33.4061 7.17327 33.3428 6.47778 33.2451V35.4293C7.17327 35.527 7.68483 35.5902 8.19638 35.6477C8.44929 35.6764 8.69644 35.7052 8.74243 35.7109C8.78841 35.7167 9.03557 35.7397 9.28847 35.7627C9.54138 35.7857 9.84601 35.8144 9.97821 35.8316C10.4438 35.8834 12.4843 36.0156 13.927 36.0845C14.6684 36.119 15.9904 36.1478 17.1458 36.1535V33.9693C15.9904 33.9636 14.6627 33.9349 13.927 33.9004C12.49 33.8371 10.4495 33.6992 9.97821 33.6475Z" fill="#F12838"/>
<path d="M45.6496 33.3774C45.6668 33.2797 45.7013 32.9693 45.7243 32.6819C45.7473 32.3945 45.7818 32.0439 45.7933 31.9002C45.8105 31.7565 45.8393 31.4231 45.8565 31.1587C45.8737 30.8943 45.9025 30.5724 45.914 30.4345C45.9312 30.2965 45.9657 29.7965 45.9887 29.3194C46.0174 28.8423 46.0462 28.2503 46.0634 28.0146C46.1152 27.2099 46.1439 25.9109 46.1554 24.4855C46.1554 24.0486 45.8048 23.6865 45.3622 23.6865H24.4803C24.0435 23.6865 23.6929 24.0371 23.6929 24.474V45.3501C23.6929 45.7869 24.0492 46.1433 24.4918 46.1433C25.9748 46.1318 27.3255 46.1031 28.1015 46.0571C28.3544 46.0398 28.8602 46.0168 29.2165 45.9996C29.8316 45.9709 30.0615 45.9536 31.0271 45.8846C32.033 45.8099 33.4239 45.6777 34.2401 45.5858L46.9946 46.9997L45.6496 33.3774ZM40.2696 37.2916C39.5741 37.3893 39.0626 37.4526 38.551 37.5101C38.2981 37.5388 38.0509 37.5675 38.005 37.5733C37.959 37.579 37.7118 37.602 37.4589 37.625C37.206 37.648 36.9014 37.6767 36.7692 37.694C36.3036 37.7457 34.2631 37.8779 32.8204 37.9469C32.079 37.9814 30.757 38.0101 29.6016 38.0159V35.8317C30.757 35.8259 32.0847 35.7972 32.8204 35.7627C34.2574 35.6995 36.2979 35.5615 36.7692 35.5098C36.8956 35.4926 37.206 35.4638 37.4589 35.4408C37.7118 35.4178 37.959 35.3949 38.005 35.3891C38.0509 35.3891 38.2981 35.3546 38.551 35.3259C39.0626 35.2684 39.5741 35.2052 40.2696 35.1075V37.2916ZM40.2696 33.5843C39.5741 33.682 39.0626 33.7452 38.551 33.8027C38.2981 33.8314 38.0509 33.8602 38.005 33.8659C37.959 33.8717 37.7118 33.8947 37.4589 33.9177C37.206 33.9406 36.9014 33.9694 36.7692 33.9866C36.3036 34.0384 34.2631 34.1706 32.8204 34.2395C32.079 34.274 30.757 34.3028 29.6016 34.3085V32.1243C30.757 32.1186 32.0847 32.0899 32.8204 32.0554C34.2574 31.9921 36.2979 31.8542 36.7692 31.8025C36.8956 31.7852 37.206 31.7565 37.4589 31.7335C37.7118 31.7105 37.959 31.6875 38.005 31.6818C38.0509 31.6818 38.2981 31.6473 38.551 31.6185C39.0626 31.561 39.5741 31.4978 40.2696 31.4001V33.5843Z" fill="#F12838"/>
<path d="M11.812 32.7285C12.5477 32.7285 13.1455 32.1307 13.1455 31.395C13.1455 30.6593 12.5477 30.0615 11.812 30.0615C11.0763 30.0615 10.4785 30.6593 10.4785 31.395C10.4785 32.1307 11.0763 32.7285 11.812 32.7285Z" fill="#F12838"/>
<path d="M11.812 36.6768C11.0763 36.6768 10.4785 37.2745 10.4785 38.0103C10.4785 38.746 11.0763 39.3437 11.812 39.3437C12.5477 39.3437 13.1455 38.746 13.1455 38.0103C13.1455 37.2745 12.5477 36.6768 11.812 36.6768Z" fill="#F12838"/>
</svg>
